<?xml version="1.0" encoding="utf-8"?>
<!-- Generator: Adobe Illustrator 23.1.0, SVG Export Plug-In . SVG Version: 6.00 Build 0)  -->
<svg version="1.1" id="Layer_1" xmlns="http://www.w3.org/2000/svg" xmlns:xlink="http://www.w3.org/1999/xlink" x="0px" y="0px"
	 viewBox="0 0 172.1 53.7" style="enable-background:new 0 0 172.1 53.7;" xml:space="preserve">
<style type="text/css">
	.st0{fill-rule:evenodd;clip-rule:evenodd;}
	.st1{font-family:'NexaBold';}
	.st2{font-size:27px;}
</style>
<path class="st0" d="M8,29.3l-5-4.4L17.5,17l5.6,3.9l5.4-3.9l14.6,7.7l-5,4.5l0,0l5,6.9l-5,2.7v6.9l-15,8l-15-8v-6.9l1.7,0.9v5
	l12.5,6.7V38.2L18,44.3L3,36.1L8,29.3z M23.9,38.2v13.1l12.5-6.7v-5L28,44.3C28,44.3,23.9,38.2,23.9,38.2z M5.5,35.6l12,6.5l3.1-4.5
	L8.5,31.4C8.5,31.4,5.5,35.6,5.5,35.6z M25.5,37.6l3.1,4.5l12-6.6l-3-4.2C37.6,31.4,25.5,37.6,25.5,37.6z M9.7,30.1L23,22.7
	l13.4,7.4L23.1,37L9.7,30.1z M5.9,25.2l3.5,3.1l12-6.6L17.4,19L5.9,25.2z M24.7,21.8l11.8,6.5l3.6-3.2L28.6,19L24.7,21.8z"/>
<rect x="34.1" y="5.4" transform="matrix(0.866 0.5 -0.5 0.866 8.8471 -17.2271)" class="st0" width="5" height="5"/>
<rect x="20.2" y="11.1" transform="matrix(0.9659 -0.2588 0.2588 0.9659 -2.5246 6.0774)" class="st0" width="3.1" height="3.1"/>
<rect x="37.9" y="16.9" transform="matrix(0.9823 0.1871 -0.1871 0.9823 4.1574 -7.06)" class="st0" width="3.1" height="3.1"/>
<rect x="5.8" y="5.3" transform="matrix(0.317 0.9484 -0.9484 0.317 13.7178 -2.6452)" class="st0" width="5.8" height="5.8"/>
<rect x="24.2" y="0.2" transform="matrix(-9.407772e-02 0.9956 -0.9956 -9.407772e-02 30.6476 -23.7274)" class="st0" width="3.9" height="3.9"/>
<rect x="1.5" y="16.6" transform="matrix(-9.407772e-02 0.9956 -0.9956 -9.407772e-02 22.2048 16.7896)" class="st0" width="3.9" height="3.9"/>
<text transform="matrix(1 0 0 1 51.2934 36.4979)" class="st1 st2">Task BOX</text>
</svg>
